# xmcd
#
# Track frame offsets: 
#        150
#        11998
#        23618
#        33136
#        43393
#        56556
#        67634
#        78353
#        87870
#        101370
#        113159
#        129616
#        144819
#        160044
#        186669
#        197202
#
# Disc length: 2681 seconds
#
# Revision: 0
# Processed by: cddbd v1.5.2PL0 Copyright (c) Steve Scherf et al.
# Submitted via: ExactAudioCopyFreeDBPlugin 1.0
#
DISCID=cc0a7710
DTITLE=Buck Owens - When Buck Came Back! Live San Francisco 1989  CD 2
DYEAR=2015
DGENRE=Bakersfield Sound
TTITLE0=Sam's Place 
TTITLE1=Above and Beyond
TTITLE2=Hello Trouble 
TTITLE3=I Don't Care (Just As Long As You Love Me)
TTITLE4=Swinging Doors
TTITLE5=Arms Full Of Empty
TTITLE6=Sawmill 
TTITLE7=Buckaroo
TTITLE8=Out There Chasing Rainbows 
TTITLE9=Nobody's Fool But Yours 
TTITLE10=I've Got A Tiger By The Tail 
TTITLE11=Streets Of Bakersfield 
TTITLE12=Johnny B. Goode
TTITLE13=Big In Vegas 
TTITLE14=Gonna Have Love 
TTITLE15=Johnny B. Goode [Reprise]
EXTD=
EXTT0=
EXTT1=
EXTT2=
EXTT3=
EXTT4=
EXTT5=
EXTT6=
EXTT7=
EXTT8=
EXTT9=
EXTT10=
EXTT11=
EXTT12=
EXTT13=
EXTT14=
EXTT15=
PLAYORDER=
